:FULLY-SPECIFIED
:FORCE-ALL-JOINTS-BE-3DOF
:DEGREES
340
root 9.61704 16.9361 11.299 6.75201 6.41718 0.879597
lfemur -11.295 3.63096 -22.2208
ltibia 34.6677 -0 0
lfoot -13.9069 6.9434 0.0215606
ltoes -2.52762 0 0
rfemur -27.7824 13.0303 16.3123
rtibia 28.5399 -0 0
rfoot -24.3023 -7.65721 0.642779
rtoes -17.9487 0 0
lowerback -6.82716 -2.52889 -3.32343
upperback -0.777235 -3.19381 2.34471
thorax 3.45277 -1.65382 3.91118
lowerneck -19.3719 -5.44454 -13.3105
upperneck 21.1384 -6.9717 13.42
head 11.0101 -2.72146 6.08638
lclavicle -2.88401e-14 -1.10798e-14 3.89852e-30
lhumerus -30.8141 -27.0738 95.9574
lradius 32.2181 -0 0
lwrist 14.6491 0 0
lhand -12.9361 -21.5205 0.0103231
lfingers 7.12502 -0 0
lthumb 13.1545 8.03958 0.00889685
rclavicle -2.88401e-14 -1.10798e-14 3.89852e-30
rhumerus -41.9471 12.8217 -84.3969
rradius 39.6323 -0 0
rwrist -21.6123 0 0
rhand -29.9099 -26.6543 -0.000151722
rfingers 7.12502 -0 0
rthumb -3.23039 -56.6095 -0.000147503
341
root 9.60503 16.9407 11.454 6.73781 6.38649 0.751586
lfemur -12.0135 3.70258 -22.0291
ltibia 35.6874 -0 0
lfoot -13.8912 7.1141 0.0213726
ltoes -2.64168 0 0
rfemur -27.3421 12.8181 16.7845
rtibia 28.6287 -0 0
rfoot -24.0757 -7.30176 0.637154
rtoes -17.8017 0 0
lowerback -6.79217 -2.45681 -3.21461
upperback -0.782097 -3.10716 2.35852
thorax 3.41379 -1.60847 3.87565
lowerneck -19.3756 -5.46631 -13.3214
upperneck 21.1185 -7.0046 13.4497
head 11.0106 -2.7338 6.09356
lclavicle -2.73468e-14 -1.14057e-14 3.86454e-30
lhumerus -31.3506 -26.8186 96.0864
lradius 32.0906 -0 0
lwrist 14.5566 0 0
lhand -12.9826 -21.5482 0.0102331
lfingers 7.12502 -0 0
lthumb 13.1097 8.01482 0.00881931
rclavicle -2.73468e-14 -1.14057e-14 3.86454e-30
rhumerus -41.7215 13.0036 -84.4215
rradius 39.7564 -0 0
rwrist -21.6588 0 0
rhand -29.9128 -26.6478 -0.0001504
rfingers 7.12502 -0 0
rthumb -3.23322 -56.603 -0.000146217
342
root 9.59301 16.9453 11.609 6.72369 6.35578 0.623589
lfemur -12.7319 3.77659 -21.8383
ltibia 36.707 -0 0
lfoot -13.8754 7.28481 0.0211375
ltoes -2.75573 0 0
rfemur -26.904 12.6023 17.2546
rtibia 28.7175 -0 0
rfoot -23.8491 -6.94633 0.630124
rtoes -17.6547 0 0
lowerback -6.75704 -2.38481 -3.10576
upperback -0.786937 -3.02052 2.37232
thorax 3.37478 -1.56314 3.84009
lowerneck -19.3792 -5.48808 -13.3323
upperneck 21.0987 -7.03748 13.4794
head 11.0111 -2.74614 6.10073
lclavicle -2.58534e-14 -1.17316e-14 3.82208e-30
lhumerus -31.8853 -26.5623 96.2125
lradius 31.9631 -0 0
lwrist 14.464 0 0
lhand -13.0291 -21.5759 0.0101207
lfingers 7.12502 -0 0
lthumb 13.0648 7.99006 0.00872239
rclavicle -2.58534e-14 -1.17316e-14 3.82208e-30
rhumerus -41.4957 13.1855 -84.4453
rradius 39.8806 -0 0
rwrist -21.7053 0 0
rhand -29.9157 -26.6414 -0.000148747
rfingers 7.12502 -0 0
rthumb -3.23606 -56.5965 -0.00014461
343
root 9.58099 16.95 11.764 6.70964 6.32503 0.495609
lfemur -13.45 3.85298 -21.6485
ltibia 37.7267 -0 0
lfoot -13.8596 7.45551 0.0208555
ltoes -2.86979 0 0
rfemur -26.4681 12.3831 17.7227
rtibia 28.8063 -0 0
rfoot -23.6226 -6.59094 0.621689
rtoes -17.5077 0 0
lowerback -6.72178 -2.31286 -2.99687
upperback -0.791757 -2.93387 2.38611
thorax 3.33574 -1.51783 3.80451
lowerneck -19.3829 -5.50985 -13.3433
upperneck 21.0788 -7.07036 13.5091
head 11.0115 -2.75848 6.10791
lclavicle -2.43601e-14 -1.20575e-14 3.77111e-30
lhumerus -32.4182 -26.305 96.3357
lradius 31.8356 -0 0
lwrist 14.3715 0 0
lhand -13.0756 -21.6036 0.00998571
lfingers 7.12502 -0 0
lthumb 13.02 7.9653 0.00860608
rclavicle -2.43601e-14 -1.20575e-14 3.77111e-30
rhumerus -41.2699 13.3675 -84.4684
rradius 40.0047 -0 0
rwrist -21.7518 0 0
rhand -29.9187 -26.6349 -0.000146764
rfingers 7.12502 -0 0
rthumb -3.23889 -56.59 -0.000142682
344
root 9.56898 16.9546 11.919 6.69565 6.29425 0.367643
lfemur -14.168 3.93173 -21.4596
ltibia 38.7463 -0 0
lfoot -13.8438 7.62621 0.0205265
ltoes -2.98385 0 0
rfemur -26.0344 12.1603 18.1886
rtibia 28.8951 -0 0
rfoot -23.3961 -6.23558 0.611849
rtoes -17.3607 0 0
lowerback -6.68639 -2.24099 -2.88794
upperback -0.796555 -2.84722 2.3999
thorax 3.29668 -1.47255 3.76889
lowerneck -19.3865 -5.53162 -13.3542
upperneck 21.0589 -7.10323 13.5388
head 11.012 -2.77082 6.11508
lclavicle -2.28668e-14 -1.23833e-14 3.71166e-30
lhumerus -32.9493 -26.0467 96.4559
lradius 31.7081 -0 0
lwrist 14.2789 0 0
lhand -13.1222 -21.6313 0.00982827
lfingers 7.12502 -0 0
lthumb 12.9751 7.94053 0.00847039
rclavicle -2.28668e-14 -1.23833e-14 3.71166e-30
rhumerus -41.044 13.5497 -84.4908
rradius 40.1289 -0 0
rwrist -21.7983 0 0
rhand -29.9216 -26.6284 -0.00014445
rfingers 7.12502 -0 0
rthumb -3.24173 -56.5835 -0.000140433
345
root 9.55696 16.9592 12.074 6.68174 6.26344 0.239692
lfemur -14.8858 4.01285 -21.2717
ltibia 39.7659 -0 0
lfoot -13.8281 7.79691 0.0201505
ltoes -3.09791 0 0
rfemur -25.6029 11.9342 18.6524
rtibia 28.9839 -0 0
rfoot -23.1697 -5.88026 0.600604
rtoes -17.2137 0 0
lowerback -6.65086 -2.16918 -2.77897
upperback -0.801331 -2.76057 2.41368
thorax 3.25759 -1.4273 3.73325
lowerneck -19.3901 -5.5534 -13.3652
upperneck 21.039 -7.13608 13.5686
head 11.0125 -2.78316 6.12226
lclavicle -2.13734e-14 -1.27092e-14 3.64371e-30
lhumerus -33.4786 -25.7874 96.5731
lradius 31.5806 -0 0
lwrist 14.1864 0 0
lhand -13.1687 -21.659 0.00964834
lfingers 7.12502 -0 0
lthumb 12.9303 7.91577 0.00831532
rclavicle -2.13734e-14 -1.27092e-14 3.64371e-30
rhumerus -40.818 13.7319 -84.5125
rradius 40.253 -0 0
rwrist -21.8448 0 0
rhand -29.9245 -26.622 -0.000141806
rfingers 7.12502 -0 0
rthumb -3.24456 -56.577 -0.000137862
346
root 9.54494 16.9638 12.229 6.6679 6.2326 0.111757
lfemur -15.6034 4.0963 -21.0848
ltibia 40.7856 -0 0
lfoot -13.8123 7.96761 0.0197275
ltoes -3.21196 0 0
rfemur -25.1737 11.7046 19.1141
rtibia 29.0727 -0 0
rfoot -22.9434 -5.52499 0.587956
rtoes -17.0667 0 0
lowerback -6.61519 -2.09745 -2.66996
upperback -0.806087 -2.67392 2.42745
thorax 3.21847 -1.38206 3.69757
lowerneck -19.3938 -5.57517 -13.3761
upperneck 21.0191 -7.16893 13.5983
head 11.013 -2.7955 6.12943
lclavicle -1.98801e-14 -1.30351e-14 3.56727e-30
lhumerus -34.0062 -25.5271 96.6875
lradius 31.4531 -0 0
lwrist 14.0938 0 0
lhand -13.2152 -21.6867 0.00944591
lfingers 7.12502 -0 0
lthumb 12.8854 7.89101 0.00814086
rclavicle -1.98801e-14 -1.30351e-14 3.56727e-30
rhumerus -40.5919 13.9142 -84.5334
rradius 40.3772 -0 0
rwrist -21.8913 0 0
rhand -29.9275 -26.6155 -0.000138831
rfingers 7.12502 -0 0
rthumb -3.24739 -56.5705 -0.00013497
347
root 9.53293 16.9685 12.384 6.65412 6.20173 -0.0161637
lfemur -16.3208 4.18209 -20.8989
ltibia 41.8052 -0 0
lfoot -13.7965 8.13832 0.0192575
ltoes -3.32602 0 0
rfemur -24.7467 11.4717 19.5736
rtibia 29.1615 -0 0
rfoot -22.7172 -5.16977 0.573905
rtoes -16.9197 0 0
lowerback -6.57939 -2.02577 -2.56092
upperback -0.810822 -2.58727 2.44121
thorax 3.17932 -1.33686 3.66186
lowerneck -19.3974 -5.59694 -13.387
upperneck 20.9991 -7.20176 13.6281
head 11.0134 -2.80785 6.1366
lclavicle -1.83868e-14 -1.3361e-14 3.48234e-30
lhumerus -34.532 -25.2659 96.7989
lradius 31.3256 -0 0
lwrist 14.0012 0 0
lhand -13.2618 -21.7144 0.009221
lfingers 7.12502 -0 0
lthumb 12.8406 7.86624 0.00794702
rclavicle -1.83868e-14 -1.3361e-14 3.48234e-30
rhumerus -40.3656 14.0965 -84.5537
rradius 40.5014 -0 0
rwrist -21.9378 0 0
rhand -29.9304 -26.6091 -0.000135525
rfingers 7.12502 -0 0
rthumb -3.25023 -56.564 -0.000131756
348
root 9.52091 16.9731 12.539 6.64042 6.17083 -0.144069
lfemur -17.038 4.27018 -20.7141
ltibia 42.8249 -0 0
lfoot -13.7807 8.30902 0.0187405
ltoes -3.44008 0 0
rfemur -24.322 11.2354 20.031
rtibia 29.2503 -0 0
rfoot -22.491 -4.81462 0.558452
rtoes -16.7727 0 0
lowerback -6.54346 -1.95417 -2.45183
upperback -0.815535 -2.50062 2.45496
thorax 3.14015 -1.29167 3.62613
lowerneck -19.401 -5.61872 -13.398
upperneck 20.9792 -7.23459 13.6579
head 11.0139 -2.82019 6.14378
lclavicle -1.68935e-14 -1.36868e-14 3.38891e-30
lhumerus -35.0562 -25.0038 96.9075
lradius 31.1981 -0 0
lwrist 13.9087 0 0
lhand -13.3083 -21.7421 0.00897359
lfingers 7.12502 -0 0
lthumb 12.7957 7.84148 0.0077338
rclavicle -1.68935e-14 -1.36868e-14 3.38891e-30
rhumerus -40.1393 14.279 -84.5732
rradius 40.6255 -0 0
rwrist -21.9843 0 0
rhand -29.9333 -26.6026 -0.000131889
rfingers 7.12502 -0 0
rthumb -3.25306 -56.5575 -0.000128221
349
root 9.5089 16.9777 12.694 6.62679 6.1399 -0.27196
lfemur -17.7549 4.36058 -20.5304
ltibia 43.8445 -0 0
lfoot -13.765 8.47972 0.0181766
ltoes -3.55414 0 0
rfemur -23.8996 10.9958 20.4862
rtibia 29.3391 -0 0
rfoot -22.265 -4.45953 0.541598
rtoes -16.6257 0 0
lowerback -6.50739 -1.88264 -2.3427
upperback -0.820227 -2.41396 2.4687
thorax 3.10095 -1.24651 3.59036
lowerneck -19.4047 -5.64049 -13.4089
upperneck 20.9592 -7.2674 13.6877
head 11.0144 -2.83253 6.15095
lclavicle -1.54001e-14 -1.40127e-14 3.28699e-30
lhumerus -35.5787 -24.7408 97.0132
lradius 31.0706 -0 0
lwrist 13.8161 0 0
lhand -13.3548 -21.7697 0.00870369
lfingers 7.12502 -0 0
lthumb 12.7509 7.81672 0.00750119
rclavicle -1.54001e-14 -1.40127e-14 3.28699e-30
rhumerus -39.9128 14.4615 -84.5919
rradius 40.7497 -0 0
rwrist -22.0308 0 0
rhand -29.9363 -26.5962 -0.000127923
rfingers 7.12502 -0 0
rthumb -3.2559 -56.551 -0.000124365
350
root 9.49688 16.9824 12.849 6.61322 6.10894 -0.399836
lfemur -18.4717 4.45326 -20.3479
ltibia 44.8641 -0 0
lfoot -13.7492 8.65042 0.0175656
ltoes -3.6682 0 0
rfemur -23.4795 10.753 20.9392
rtibia 29.4279 -0 0
rfoot -22.039 -4.1045 0.523344
rtoes -16.4787 0 0
lowerback -6.47118 -1.81117 -2.23353
upperback -0.824898 -2.32731 2.48244
thorax 3.06172 -1.20138 3.55456
lowerneck -19.4083 -5.66227 -13.4198
upperneck 20.9392 -7.30021 13.7175
head 11.0148 -2.84487 6.15813
lclavicle -1.39068e-14 -1.43386e-14 3.17657e-30
lhumerus -36.0996 -24.4769 97.116
lradius 30.9431 -0 0
lwrist 13.7236 0 0
lhand -13.4013 -21.7974 0.0084113
lfingers 7.12502 -0 0
lthumb 12.706 7.79196 0.0072492
rclavicle -1.39068e-14 -1.43386e-14 3.17657e-30
rhumerus -39.6863 14.6441 -84.61
rradius 40.8738 -0 0
rwrist -22.0773 0 0
rhand -29.9392 -26.5897 -0.000123626
rfingers 7.12502 -0 0
rthumb -3.25873 -56.5445 -0.000120187
351
root 9.48486 16.987 13.0041 6.59973 6.07795 -0.527697
lfemur -19.1883 4.54821 -20.1664
ltibia 45.8838 -0 0
lfoot -13.7334 8.82112 0.0169078
ltoes -3.78225 0 0
rfemur -23.0617 10.5069 21.39
rtibia 29.5167 -0 0
rfoot -21.8132 -3.74956 0.503689
rtoes -16.3317 0 0
lowerback -6.43484 -1.73978 -2.12432
upperback -0.829548 -2.24065 2.49617
thorax 3.02246 -1.15627 3.51873
lowerneck -19.4119 -5.68405 -13.4308
upperneck 20.9191 -7.333 13.7473
head 11.0153 -2.85721 6.1653
lclavicle -1.24135e-14 -1.46645e-14 3.05766e-30
lhumerus -36.6189 -24.2122 97.216
lradius 30.8156 -0 0
lwrist 13.631 0 0
lhand -13.4479 -21.8251 0.00809642
lfingers 7.12502 -0 0
lthumb 12.6612 7.7672 0.00697783
rclavicle -1.24135e-14 -1.46645e-14 3.05766e-30
rhumerus -39.4595 14.8267 -84.6273
rradius 40.998 -0 0
rwrist -22.1238 0 0
rhand -29.9421 -26.5833 -0.000118998
rfingers 7.12502 -0 0
rthumb -3.26156 -56.538 -0.000115688
352
root 9.47285 16.9916 13.1591 6.58631 6.04693 -0.655543
lfemur -19.9046 4.64542 -19.9862
ltibia 46.9034 -0 0
lfoot -13.7177 8.99182 0.0162029
ltoes -3.89631 0 0
rfemur -22.6461 10.2576 21.8387
rtibia 29.6054 -0 0
rfoot -21.5875 -3.39469 0.482637
rtoes -16.1847 0 0
lowerback -6.39837 -1.66845 -2.01507
upperback -0.834177 -2.154 2.50989
thorax 2.98318 -1.11119 3.48287
lowerneck -19.4155 -5.70582 -13.4417
upperneck 20.8991 -7.36578 13.7771
head 11.0158 -2.86955 6.17247
lclavicle -1.09201e-14 -1.49903e-14 2.93026e-30
lhumerus -37.1366 -23.9467 97.3131
lradius 30.6881 -0 0
lwrist 13.5385 0 0
lhand -13.4944 -21.8528 0.00775906
lfingers 7.12502 -0 0
lthumb 12.6163 7.74244 0.00668707
rclavicle -1.09201e-14 -1.49903e-14 2.93026e-30
rhumerus -39.2327 15.0095 -84.6439
rradius 41.1221 -0 0
rwrist -22.1703 0 0
rhand -29.9451 -26.5768 -0.00011404
rfingers 7.12502 -0 0
rthumb -3.2644 -56.5316 -0.000110868
